<svg width="1488" height="1634" viewBox="0 0 1488 1634" fill="none" xmlns="http://www.w3.org/2000/svg">
<path fill-rule="evenodd" clip-rule="evenodd" d="M988.937 1559.18C992.104 1562.57 1061.17 1643.79 1066.46 1610.22C1079.84 1525.21 891.517 1111.27 754.437 825.78C625.3 903.296 524.07 996.85 411.583 1097.57C343.874 1158.19 258.062 1233.58 191.995 1301.49C188.041 1305.92 184.081 1310.33 180.114 1314.68C160.301 1336.41 137.83 1360.02 106.059 1362.11C54.4461 1365.51 20.455 1344.49 0.27002 1288.61L0 1248.12C4.465 1222.05 32.6982 1189.92 60.6562 1162.51C264.969 928.56 457.725 566.293 425.423 250.933C419.719 195.232 397.131 128.429 405.57 76.3448L409.279 64.0997C436.52 -6.90835 518.746 -21.2053 575.874 32.7057C609.562 64.4977 671.17 199.981 692.095 245.572C723.987 315.065 767.82 407.618 792.677 477.797C801.457 502.584 814.029 539.749 829.087 585.716C994.904 528.784 1204.1 495.088 1359.76 554.978C1527.82 619.636 1522.65 756.344 1385.35 852.278C1293.4 916.526 1165.08 956.693 1056.52 984.508C1114.5 960.171 1170.11 934.717 1224.79 903.525C1271.89 876.657 1492.53 737.393 1385.12 668.68C1281.77 602.562 1066.76 664.634 964.08 709.333C932.783 722.956 906.489 736.433 881.624 750.361C976.873 1055.98 1101.83 1494.75 1086.31 1602.39C1074.22 1686.25 1001.74 1577.68 988.933 1559.18L988.937 1559.18ZM670.97 654.55C652.753 617.764 638.135 588.663 628.705 570.137C619.445 551.946 610.43 532.991 601.576 513.592C587.326 589.397 564.518 666.471 535.121 742.731C578.52 710.47 623.716 680.528 670.972 654.55H670.97Z" fill="black"/>
</svg>
